<?xml version="1.0" standalone="no"?>
 <!DOCTYPE svg PUBLIC "-//W3C//DTD SVG 1.1//EN" 
 "http://www.w3.org/Graphics/SVG/1.1/DTD/svg11.dtd"> 
<svg xmlns="http://www.w3.org/2000/svg" version="1.1" 
    width="29.7002cm" height="21.0007cm" viewBox="0 0 116930 82680 ">
<title>SVG Picture created as PostBox-F_Fab.svg date 2020/02/22 18:10:35 </title>
  <desc>Picture generated by PCBNEW </desc>
<g style="fill:#000000; fill-opacity:1;stroke:#000000; stroke-opacity:1;
stroke-linecap:round; stroke-linejoin:round; "
 transform="translate(0 0) scale(1 1)">
</g>
<g style="fill:#000000; fill-opacity:0.0; 
stroke:#000000; stroke-width:-0.000787402; stroke-opacity:1; 
stroke-linecap:round; stroke-linejoin:round;">
</g>
<g style="fill:#000000; fill-opacity:0.0; 
stroke:#000000; stroke-width:118.11; stroke-opacity:1; 
stroke-linecap:round; stroke-linejoin:round;">
<circle cx="47320" cy="27316.4" r="1312.34" /> 
<path d="M45351 27316
L49288 27316
" />
<path d="M47319 25347
L47319 29284
" />
<circle cx="47320" cy="27316.4" r="1312.34" /> 
<path d="M45351 27316
L49288 27316
" />
<path d="M47319 25347
L47319 29284
" />
</g>
<g style="fill:#000000; fill-opacity:0.0; 
stroke:#000000; stroke-width:78.7402; stroke-opacity:1; 
stroke-linecap:round; stroke-linejoin:round;">
<path d="M67251 49807
L67280 55151
" />
<path d="M68781 49051
L67251 49807
" />
<path d="M68761 31291
L68781 49051
" />
<path d="M68670 30588
L68761 31291
" />
<path d="M68490 29993
L68670 30588
" />
<path d="M68233 29496
L68490 29993
" />
<path d="M67907 29084
L68233 29496
" />
<path d="M67525 28746
L67907 29084
" />
<path d="M67097 28471
L67525 28746
" />
<path d="M66634 28247
L67097 28471
" />
<path d="M66147 28063
L66634 28247
" />
<path d="M51156 28085
L66147 28063
" />
<path d="M50685 28231
L51156 28085
" />
<path d="M50257 28426
L50685 28231
" />
<path d="M49870 28668
L50257 28426
" />
<path d="M49525 28958
L49870 28668
" />
<path d="M49221 29294
L49525 28958
" />
<path d="M48957 29677
L49221 29294
" />
<path d="M48734 30106
L48957 29677
" />
<path d="M48551 30581
L48734 30106
" />
<path d="M48540 55124
L48551 30581
" />
<path d="M55690 55145
L48540 55124
" />
<path d="M55688 54198
L55690 55145
" />
<path d="M62642 54193
L55688 54198
" />
<path d="M62634 55151
L62642 54193
" />
<path d="M67280 55151
L62634 55151
" />
<path d="M57592 43911
L57592 42573
" />
<path d="M57592 42573
L57356 42336
" />
<path d="M57356 42336
L56647 42336
" />
<path d="M56647 42336
L56647 43911
" />
<path d="M56647 43911
L57592 43911
" />
<path d="M57332 46396
L57332 45451
" />
<path d="M57332 45451
L58907 45451
" />
<path d="M58907 45451
L58907 46396
" />
<path d="M58907 46396
L57332 46396
" />
<path d="M54012 51524
L53225 51032
" />
<path d="M53225 52016
L54012 51524
" />
<path d="M53225 47626
L53225 53453
" />
<path d="M57753 47626
L53225 47626
" />
<path d="M57753 53453
L57753 47626
" />
<path d="M53225 53453
L57753 53453
" />
<path d="M60127 41174
L60127 41568
" />
<path d="M59931 41371
L60324 41371
" />
<path d="M59445 43615
L60233 44402
" />
<path d="M59445 41017
L60233 40229
" />
<path d="M59445 41017
L59445 43615
" />
<path d="M60233 44402
L63619 44402
" />
<path d="M60233 40229
L63619 40229
" />
<path d="M63619 40229
L63619 44402
" />
<circle cx="61532.6" cy="42316.4" r="1968.5" /> 
<circle cx="61453.8" cy="37434.5" r="1968.5" /> 
<path d="M63540 35347
L63540 39521
" />
<path d="M60154 35347
L63540 35347
" />
<path d="M60154 39521
L63540 39521
" />
<path d="M59367 36135
L59367 38733
" />
<path d="M59367 36135
L60154 35347
" />
<path d="M59367 38733
L60154 39521
" />
<path d="M59852 36489
L60246 36489
" />
<path d="M60049 36292
L60049 36686
" />
<path d="M61732 46396
L61732 45451
" />
<path d="M61732 45451
L63307 45451
" />
<path d="M63307 45451
L63307 46396
" />
<path d="M63307 46396
L61732 46396
" />
<path d="M53568 40176
L53568 42105
" />
<path d="M54001 39727
L54671 39727
" />
<path d="M53568 40176
L54001 39727
" />
<path d="M54671 39727
L54671 42121
" />
<path d="M53568 42121
L54671 42121
" />
<path d="M53568 38321
L54671 38321
" />
<path d="M54671 35927
L54671 38321
" />
<path d="M53568 36376
L54001 35927
" />
<path d="M54001 35927
L54671 35927
" />
<path d="M53568 36376
L53568 38305
" />
<path d="M56647 36311
L56647 34736
" />
<path d="M57592 36311
L56647 36311
" />
<path d="M57592 34736
L57592 36311
" />
<path d="M56647 34736
L57592 34736
" />
<path d="M56647 33311
L56647 31736
" />
<path d="M57592 33311
L56647 33311
" />
<path d="M57592 31736
L57592 33311
" />
<path d="M56647 31736
L57592 31736
" />
<path d="M60600 33319
L59655 33319
" />
<path d="M59655 33319
L59655 31744
" />
<path d="M59655 31744
L60600 31744
" />
<path d="M60600 31744
L60600 33319
" />
<path d="M62655 33340
L62655 31765
" />
<path d="M63600 33340
L62655 33340
" />
<path d="M63600 31765
L63600 33340
" />
<path d="M62655 31765
L63600 31765
" />
<path d="M52932 32396
L52932 31451
" />
<path d="M52932 31451
L54507 31451
" />
<path d="M54507 31451
L54507 32396
" />
<path d="M54507 32396
L52932 32396
" />
<path d="M54507 33851
L54507 34796
" />
<path d="M54507 34796
L52932 34796
" />
<path d="M52932 34796
L52932 33851
" />
<path d="M52932 33851
L54507 33851
" />
<path d="M59682 53453
L64209 53453
" />
<path d="M64209 53453
L64209 47626
" />
<path d="M64209 47626
L59682 47626
" />
<path d="M59682 47626
L59682 53453
" />
<path d="M59682 52016
L60469 51524
" />
<path d="M60469 51524
L59682 51032
" />
<path d="M53658 44166
L53658 46095
" />
<path d="M54091 43717
L54760 43717
" />
<path d="M53658 44166
L54091 43717
" />
<path d="M54760 43717
L54760 46111
" />
<path d="M53658 46111
L54760 46111
" />
<g >
</g>
<g >
</g>
<g >
</g>
<g >
</g>
<g >
</g>
<g >
</g>
<g >
</g>
<g >
</g>
<g >
</g>
<g >
</g>
<g >
</g>
<g >
</g>
<g >
</g>
<g >
</g>
<g >
</g>
<g >
</g>
<g >
</g>
<g >
</g>
</g>
<g style="fill:#000000; fill-opacity:0.0; 
stroke:#000000; stroke-width:78.7402; stroke-opacity:1; 
stroke-linecap:round; stroke-linejoin:round;">
</g>
<g style="fill:#000000; fill-opacity:0.0; 
stroke:#000000; stroke-width:118.11; stroke-opacity:1; 
stroke-linecap:round; stroke-linejoin:round;">
<g transform="rotate(-90 55820.8 43124.3)">
<text x="55820.8" y="43518"
textLength="4414.32" font-size="1049.87" lengthAdjust="spacingAndGlyphs"
text-anchor="middle" opacity="0">LED_GR</text>
</g>
<path d="M56176 44717
L56176 45092
L55389 45092
" />
<path d="M55764 44455
L55764 44192
" />
<path d="M56176 44080
L56176 44455
L55389 44455
L55389 44080
" />
<path d="M56176 43742
L55389 43742
L55389 43555
L55427 43442
L55502 43367
L55577 43330
L55727 43292
L55839 43292
L55989 43330
L56064 43367
L56139 43442
L56176 43555
L56176 43742
" />
<path d="M56251 43142
L56251 42543
" />
<path d="M55427 41943
L55389 42018
L55389 42130
L55427 42243
L55502 42318
L55577 42355
L55727 42393
L55839 42393
L55989 42355
L56064 42318
L56139 42243
L56176 42130
L56176 42055
L56139 41943
L56101 41905
L55839 41905
L55839 42055
" />
<path d="M56176 41118
L55802 41380
" />
<path d="M56176 41568
L55389 41568
L55389 41268
L55427 41193
L55464 41155
L55539 41118
L55652 41118
L55727 41155
L55764 41193
L55802 41268
L55802 41568
" />
</g>
<g style="fill:#000000; fill-opacity:0.0; 
stroke:#000000; stroke-width:62.9921; stroke-opacity:1; 
stroke-linecap:round; stroke-linejoin:round;">
<g transform="rotate(-90 57120 43124.3)">
<text x="57120" y="43321.1"
textLength="922.197" font-size="524.934" lengthAdjust="spacingAndGlyphs"
text-anchor="middle" opacity="0">D1</text>
</g>
<path d="M57298 43414
L56904 43414
L56904 43321
L56923 43264
L56960 43227
L56998 43208
L57073 43189
L57129 43189
L57204 43208
L57241 43227
L57279 43264
L57298 43321
L57298 43414
" />
<path d="M57298 42814
L57298 43039
" />
<path d="M57298 42927
L56904 42927
L56960 42964
L56998 43002
L57016 43039
" />
</g>
<g style="fill:#000000; fill-opacity:0.0; 
stroke:#000000; stroke-width:118.11; stroke-opacity:1; 
stroke-linecap:round; stroke-linejoin:round;">
<text x="58120" y="47617.2"
textLength="2331.61" font-size="1049.87" lengthAdjust="spacingAndGlyphs"
text-anchor="middle" opacity="0">330</text>
<path d="M57107 46792
L57595 46792
L57332 47092
L57445 47092
L57520 47129
L57557 47167
L57595 47242
L57595 47429
L57557 47504
L57520 47542
L57445 47579
L57220 47579
L57145 47542
L57107 47504
" />
<path d="M57857 46792
L58344 46792
L58082 47092
L58194 47092
L58269 47129
L58307 47167
L58344 47242
L58344 47429
L58307 47504
L58269 47542
L58194 47579
L57970 47579
L57895 47542
L57857 47504
" />
<path d="M58832 46792
L58907 46792
L58982 46829
L59019 46867
L59057 46942
L59094 47092
L59094 47279
L59057 47429
L59019 47504
L58982 47542
L58907 47579
L58832 47579
L58757 47542
L58719 47504
L58682 47429
L58644 47279
L58644 47092
L58682 46942
L58719 46867
L58757 46829
L58832 46792
" />
</g>
<g style="fill:#000000; fill-opacity:0.0; 
stroke:#000000; stroke-width:62.9921; stroke-opacity:1; 
stroke-linecap:round; stroke-linejoin:round;">
<text x="58120" y="46121.1"
textLength="922.197" font-size="524.934" lengthAdjust="spacingAndGlyphs"
text-anchor="middle" opacity="0">R7</text>
<path d="M58054 46102
L57923 45914
" />
<path d="M57829 46102
L57829 45708
L57979 45708
L58016 45727
L58035 45746
L58054 45783
L58054 45839
L58035 45877
L58016 45896
L57979 45914
L57829 45914
" />
<path d="M58185 45708
L58448 45708
L58279 46102
" />
</g>
<g style="fill:#000000; fill-opacity:0.0; 
stroke:#000000; stroke-width:118.11; stroke-opacity:1; 
stroke-linecap:round; stroke-linejoin:round;">
<g transform="rotate(-90 58697.9 50540)">
<text x="58697.9" y="50933.7"
textLength="10543.1" font-size="1049.87" lengthAdjust="spacingAndGlyphs"
text-anchor="middle" opacity="0">Conn_01x02_Male</text>
</g>
<path d="M58979 55133
L59016 55170
L59054 55283
L59054 55358
L59016 55470
L58941 55545
L58866 55583
L58716 55620
L58604 55620
L58454 55583
L58379 55545
L58304 55470
L58266 55358
L58266 55283
L58304 55170
L58341 55133
" />
<path d="M59054 54683
L59016 54758
L58979 54795
L58904 54833
L58679 54833
L58604 54795
L58566 54758
L58529 54683
L58529 54570
L58566 54495
L58604 54458
L58679 54420
L58904 54420
L58979 54458
L59016 54495
L59054 54570
L59054 54683
" />
<path d="M58529 54083
L59054 54083
" />
<path d="M58604 54083
L58566 54045
L58529 53970
L58529 53858
L58566 53783
L58641 53745
L59054 53745
" />
<path d="M58529 53370
L59054 53370
" />
<path d="M58604 53370
L58566 53333
L58529 53258
L58529 53145
L58566 53070
L58641 53033
L59054 53033
" />
<path d="M59129 52845
L59129 52246
" />
<path d="M58266 51908
L58266 51833
L58304 51758
L58341 51721
L58416 51683
L58566 51646
L58754 51646
L58904 51683
L58979 51721
L59016 51758
L59054 51833
L59054 51908
L59016 51983
L58979 52021
L58904 52058
L58754 52096
L58566 52096
L58416 52058
L58341 52021
L58304 51983
L58266 51908
" />
<path d="M59054 50896
L59054 51346
" />
<path d="M59054 51121
L58266 51121
L58379 51196
L58454 51271
L58491 51346
" />
<path d="M59054 50633
L58529 50221
" />
<path d="M58529 50633
L59054 50221
" />
<path d="M58266 49771
L58266 49696
L58304 49621
L58341 49583
L58416 49546
L58566 49508
L58754 49508
L58904 49546
L58979 49583
L59016 49621
L59054 49696
L59054 49771
L59016 49846
L58979 49883
L58904 49921
L58754 49958
L58566 49958
L58416 49921
L58341 49883
L58304 49846
L58266 49771
" />
<path d="M58341 49208
L58304 49171
L58266 49096
L58266 48908
L58304 48833
L58341 48796
L58416 48758
L58491 48758
L58604 48796
L59054 49246
L59054 48758
" />
<path d="M59129 48608
L59129 48009
" />
<path d="M59054 47821
L58266 47821
L58829 47559
L58266 47296
L59054 47296
" />
<path d="M59054 46584
L58641 46584
L58566 46621
L58529 46696
L58529 46846
L58566 46921
" />
<path d="M59016 46584
L59054 46659
L59054 46846
L59016 46921
L58941 46959
L58866 46959
L58791 46921
L58754 46846
L58754 46659
L58716 46584
" />
<path d="M59054 46096
L59016 46171
L58941 46209
L58266 46209
" />
<path d="M59016 45496
L59054 45571
L59054 45721
L59016 45796
L58941 45834
L58641 45834
L58566 45796
L58529 45721
L58529 45571
L58566 45496
L58641 45459
L58716 45459
L58791 45834
" />
<g transform="rotate(-90 57201.9 50540)">
<text x="57201.9" y="50933.7"
textLength="1503.37" font-size="1049.87" lengthAdjust="spacingAndGlyphs"
text-anchor="middle" opacity="0">J1</text>
</g>
<path d="M56770 50802
L57333 50802
L57445 50839
L57520 50914
L57558 51027
L57558 51102
" />
<path d="M57558 50015
L57558 50465
" />
<path d="M57558 50240
L56770 50240
L56883 50315
L56958 50390
L56995 50465
" />
<text x="61532.6" y="45623.5"
textLength="1728.35" font-size="1049.87" lengthAdjust="spacingAndGlyphs"
text-anchor="middle" opacity="0">CP</text>
<path d="M61382 45510
L61345 45548
L61232 45585
L61157 45585
L61045 45548
L60970 45473
L60932 45398
L60895 45248
L60895 45136
L60932 44986
L60970 44911
L61045 44836
L61157 44798
L61232 44798
L61345 44836
L61382 44873
" />
<path d="M61720 45585
L61720 44798
L62020 44798
L62095 44836
L62132 44873
L62170 44948
L62170 45061
L62132 45136
L62095 45173
L62020 45211
L61720 45211
" />
<text x="61532.6" y="42710.1"
textLength="1690.85" font-size="1049.87" lengthAdjust="spacingAndGlyphs"
text-anchor="middle" opacity="0">C2</text>
<path d="M61401 42597
L61363 42635
L61251 42672
L61176 42672
L61063 42635
L60988 42560
L60951 42485
L60913 42335
L60913 42222
L60951 42072
L60988 41997
L61063 41922
L61176 41885
L61251 41885
L61363 41922
L61401 41960
" />
<path d="M61701 41960
L61738 41922
L61813 41885
L62001 41885
L62076 41922
L62113 41960
L62151 42035
L62151 42110
L62113 42222
L61663 42672
L62151 42672
" />
<text x="61453.8" y="40741.6"
textLength="1728.35" font-size="1049.87" lengthAdjust="spacingAndGlyphs"
text-anchor="middle" opacity="0">CP</text>
<path d="M61303 40629
L61266 40666
L61153 40704
L61078 40704
L60966 40666
L60891 40591
L60853 40516
L60816 40366
L60816 40254
L60853 40104
L60891 40029
L60966 39954
L61078 39916
L61153 39916
L61266 39954
L61303 39991
" />
<path d="M61641 40704
L61641 39916
L61941 39916
L62016 39954
L62053 39991
L62091 40066
L62091 40179
L62053 40254
L62016 40291
L61941 40329
L61641 40329
" />
<text x="61453.8" y="37828.2"
textLength="1690.85" font-size="1049.87" lengthAdjust="spacingAndGlyphs"
text-anchor="middle" opacity="0">C1</text>
<path d="M61322 37715
L61285 37753
L61172 37790
L61097 37790
L60985 37753
L60910 37678
L60872 37603
L60835 37453
L60835 37340
L60872 37190
L60910 37115
L60985 37040
L61097 37003
L61172 37003
L61285 37040
L61322 37078
" />
<path d="M62072 37790
L61622 37790
" />
<path d="M61847 37790
L61847 37003
L61772 37115
L61697 37190
L61622 37228
" />
<text x="62520" y="47617.2"
textLength="940.945" font-size="1049.87" lengthAdjust="spacingAndGlyphs"
text-anchor="middle" opacity="0">C</text>
<path d="M62763 47504
L62726 47542
L62613 47579
L62538 47579
L62426 47542
L62351 47467
L62313 47392
L62276 47242
L62276 47129
L62313 46979
L62351 46904
L62426 46829
L62538 46792
L62613 46792
L62726 46829
L62763 46867
" />
</g>
<g style="fill:#000000; fill-opacity:0.0; 
stroke:#000000; stroke-width:62.9921; stroke-opacity:1; 
stroke-linecap:round; stroke-linejoin:round;">
<text x="62520" y="46121.1"
textLength="922.197" font-size="524.934" lengthAdjust="spacingAndGlyphs"
text-anchor="middle" opacity="0">C3</text>
<path d="M62454 46064
L62435 46083
L62379 46102
L62341 46102
L62285 46083
L62248 46046
L62229 46008
L62210 45933
L62210 45877
L62229 45802
L62248 45764
L62285 45727
L62341 45708
L62379 45708
L62435 45727
L62454 45746
" />
<path d="M62585 45708
L62829 45708
L62698 45858
L62754 45858
L62791 45877
L62810 45896
L62829 45933
L62829 46027
L62810 46064
L62791 46083
L62754 46102
L62641 46102
L62604 46083
L62585 46064
" />
</g>
<g style="fill:#000000; fill-opacity:0.0; 
stroke:#000000; stroke-width:118.11; stroke-opacity:1; 
stroke-linecap:round; stroke-linejoin:round;">
<text x="54120" y="43286.5"
textLength="4656.32" font-size="1049.87" lengthAdjust="spacingAndGlyphs"
text-anchor="middle" opacity="0">2N7002</text>
<path d="M51982 42536
L52020 42499
L52095 42461
L52282 42461
L52357 42499
L52395 42536
L52432 42611
L52432 42686
L52395 42799
L51945 43248
L52432 43248
" />
<path d="M52770 43248
L52770 42461
L53220 43248
L53220 42461
" />
<path d="M53520 42461
L54044 42461
L53707 43248
" />
<path d="M54494 42461
L54569 42461
L54644 42499
L54682 42536
L54719 42611
L54757 42761
L54757 42948
L54719 43098
L54682 43173
L54644 43211
L54569 43248
L54494 43248
L54419 43211
L54382 43173
L54344 43098
L54307 42948
L54307 42761
L54344 42611
L54382 42536
L54419 42499
L54494 42461
" />
<path d="M55244 42461
L55319 42461
L55394 42499
L55432 42536
L55469 42611
L55507 42761
L55507 42948
L55469 43098
L55432 43173
L55394 43211
L55319 43248
L55244 43248
L55169 43211
L55132 43173
L55094 43098
L55057 42948
L55057 42761
L55094 42611
L55132 42536
L55169 42499
L55244 42461
" />
<path d="M55807 42536
L55844 42499
L55919 42461
L56107 42461
L56182 42499
L56219 42536
L56257 42611
L56257 42686
L56219 42799
L55769 43248
L56257 43248
" />
</g>
<g style="fill:#000000; fill-opacity:0.0; 
stroke:#000000; stroke-width:59.0551; stroke-opacity:1; 
stroke-linecap:round; stroke-linejoin:round;">
<g transform="rotate(-90 54120 40924.3)">
<text x="54120" y="41121.1"
textLength="940.945" font-size="524.934" lengthAdjust="spacingAndGlyphs"
text-anchor="middle" opacity="0">Q1</text>
</g>
<path d="M54335 40961
L54316 40999
L54279 41036
L54223 41092
L54204 41130
L54204 41167
" />
<path d="M54298 41149
L54279 41186
L54241 41224
L54166 41242
L54035 41242
L53960 41224
L53923 41186
L53904 41149
L53904 41074
L53923 41036
L53960 40999
L54035 40980
L54166 40980
L54241 40999
L54279 41036
L54298 41074
L54298 41149
" />
<path d="M54298 40605
L54298 40830
" />
<path d="M54298 40718
L53904 40718
L53960 40755
L53998 40793
L54016 40830
" />
</g>
<g style="fill:#000000; fill-opacity:0.0; 
stroke:#000000; stroke-width:118.11; stroke-opacity:1; 
stroke-linecap:round; stroke-linejoin:round;">
<text x="54120" y="39486.5"
textLength="4651.2" font-size="1049.87" lengthAdjust="spacingAndGlyphs"
text-anchor="middle" opacity="0">2N7002</text>
<path d="M51982 38736
L52020 38699
L52095 38661
L52282 38661
L52357 38699
L52395 38736
L52432 38811
L52432 38886
L52395 38999
L51945 39448
L52432 39448
" />
<path d="M52770 39448
L52770 38661
L53220 39448
L53220 38661
" />
<path d="M53520 38661
L54044 38661
L53707 39448
" />
<path d="M54494 38661
L54569 38661
L54644 38699
L54682 38736
L54719 38811
L54757 38961
L54757 39148
L54719 39298
L54682 39373
L54644 39411
L54569 39448
L54494 39448
L54419 39411
L54382 39373
L54344 39298
L54307 39148
L54307 38961
L54344 38811
L54382 38736
L54419 38699
L54494 38661
" />
<path d="M55244 38661
L55319 38661
L55394 38699
L55432 38736
L55469 38811
L55507 38961
L55507 39148
L55469 39298
L55432 39373
L55394 39411
L55319 39448
L55244 39448
L55169 39411
L55132 39373
L55094 39298
L55057 39148
L55057 38961
L55094 38811
L55132 38736
L55169 38699
L55244 38661
" />
<path d="M55807 38736
L55844 38699
L55919 38661
L56107 38661
L56182 38699
L56219 38736
L56257 38811
L56257 38886
L56219 38999
L55769 39448
L56257 39448
" />
</g>
<g style="fill:#000000; fill-opacity:0.0; 
stroke:#000000; stroke-width:59.0551; stroke-opacity:1; 
stroke-linecap:round; stroke-linejoin:round;">
<g transform="rotate(-90 54120 37124.3)">
<text x="54120" y="37321.1"
textLength="940.945" font-size="524.934" lengthAdjust="spacingAndGlyphs"
text-anchor="middle" opacity="0">Q2</text>
</g>
<path d="M54335 37161
L54316 37199
L54279 37236
L54223 37292
L54204 37330
L54204 37367
" />
<path d="M54298 37349
L54279 37386
L54241 37424
L54166 37442
L54035 37442
L53960 37424
L53923 37386
L53904 37349
L53904 37274
L53923 37236
L53960 37199
L54035 37180
L54166 37180
L54241 37199
L54279 37236
L54298 37274
L54298 37349
" />
<path d="M53941 37030
L53923 37011
L53904 36974
L53904 36880
L53923 36843
L53941 36824
L53979 36805
L54016 36805
L54073 36824
L54298 37049
L54298 36805
" />
</g>
<g style="fill:#000000; fill-opacity:0.0; 
stroke:#000000; stroke-width:118.11; stroke-opacity:1; 
stroke-linecap:round; stroke-linejoin:round;">
<g transform="rotate(-90 55820.8 35524.3)">
<text x="55820.8" y="35918"
textLength="2363.99" font-size="1049.87" lengthAdjust="spacingAndGlyphs"
text-anchor="middle" opacity="0">10K</text>
</g>
<path d="M56176 36067
L56176 36517
" />
<path d="M56176 36292
L55389 36292
L55502 36367
L55577 36442
L55614 36517
" />
<path d="M55389 35580
L55389 35505
L55427 35430
L55464 35393
L55539 35355
L55689 35318
L55877 35318
L56026 35355
L56101 35393
L56139 35430
L56176 35505
L56176 35580
L56139 35655
L56101 35692
L56026 35730
L55877 35767
L55689 35767
L55539 35730
L55464 35692
L55427 35655
L55389 35580
" />
<path d="M56176 34980
L55389 34980
" />
<path d="M56176 34530
L55727 34868
" />
<path d="M55389 34530
L55839 34980
" />
</g>
<g style="fill:#000000; fill-opacity:0.0; 
stroke:#000000; stroke-width:62.9921; stroke-opacity:1; 
stroke-linecap:round; stroke-linejoin:round;">
<g transform="rotate(-90 57120 35524.3)">
<text x="57120" y="35721.1"
textLength="922.197" font-size="524.934" lengthAdjust="spacingAndGlyphs"
text-anchor="middle" opacity="0">R1</text>
</g>
<path d="M57298 35589
L57110 35721
" />
<path d="M57298 35814
L56904 35814
L56904 35664
L56923 35627
L56941 35608
L56979 35589
L57035 35589
L57073 35608
L57091 35627
L57110 35664
L57110 35814
" />
<path d="M57298 35214
L57298 35439
" />
<path d="M57298 35327
L56904 35327
L56960 35364
L56998 35402
L57016 35439
" />
</g>
<g style="fill:#000000; fill-opacity:0.0; 
stroke:#000000; stroke-width:118.11; stroke-opacity:1; 
stroke-linecap:round; stroke-linejoin:round;">
<g transform="rotate(-90 55820.8 32524.3)">
<text x="55820.8" y="32918"
textLength="1731.68" font-size="1049.87" lengthAdjust="spacingAndGlyphs"
text-anchor="middle" opacity="0">1M</text>
</g>
<path d="M56176 32749
L56176 33199
" />
<path d="M56176 32974
L55389 32974
L55502 33049
L55577 33124
L55614 33199
" />
<path d="M56176 32411
L55389 32411
L55952 32149
L55389 31886
L56176 31886
" />
</g>
<g style="fill:#000000; fill-opacity:0.0; 
stroke:#000000; stroke-width:62.9921; stroke-opacity:1; 
stroke-linecap:round; stroke-linejoin:round;">
<g transform="rotate(-90 57120 32524.3)">
<text x="57120" y="32721.1"
textLength="922.197" font-size="524.934" lengthAdjust="spacingAndGlyphs"
text-anchor="middle" opacity="0">R2</text>
</g>
<path d="M57298 32589
L57110 32721
" />
<path d="M57298 32814
L56904 32814
L56904 32664
L56923 32627
L56941 32608
L56979 32589
L57035 32589
L57073 32608
L57091 32627
L57110 32664
L57110 32814
" />
<path d="M56941 32439
L56923 32421
L56904 32383
L56904 32289
L56923 32252
L56941 32233
L56979 32214
L57016 32214
L57073 32233
L57298 32458
L57298 32214
" />
</g>
<g style="fill:#000000; fill-opacity:0.0; 
stroke:#000000; stroke-width:118.11; stroke-opacity:1; 
stroke-linecap:round; stroke-linejoin:round;">
<g transform="rotate(-90 61427.1 32532.1)">
<text x="61427.1" y="32925.8"
textLength="2369.1" font-size="1049.87" lengthAdjust="spacingAndGlyphs"
text-anchor="middle" opacity="0">10K</text>
</g>
<path d="M61783 33075
L61783 33525
" />
<path d="M61783 33300
L60995 33300
L61108 33375
L61183 33450
L61220 33525
" />
<path d="M60995 32588
L60995 32513
L61033 32438
L61070 32400
L61145 32363
L61295 32325
L61483 32325
L61633 32363
L61708 32400
L61745 32438
L61783 32513
L61783 32588
L61745 32663
L61708 32700
L61633 32738
L61483 32775
L61295 32775
L61145 32738
L61070 32700
L61033 32663
L60995 32588
" />
<path d="M61783 31988
L60995 31988
" />
<path d="M61783 31538
L61333 31875
" />
<path d="M60995 31538
L61445 31988
" />
</g>
<g style="fill:#000000; fill-opacity:0.0; 
stroke:#000000; stroke-width:62.9921; stroke-opacity:1; 
stroke-linecap:round; stroke-linejoin:round;">
<g transform="rotate(-90 60127.9 32532.1)">
<text x="60127.9" y="32729"
textLength="922.197" font-size="524.934" lengthAdjust="spacingAndGlyphs"
text-anchor="middle" opacity="0">R3</text>
</g>
<path d="M60305 32597
L60118 32728
" />
<path d="M60305 32822
L59912 32822
L59912 32672
L59931 32635
L59949 32616
L59987 32597
L60043 32597
L60080 32616
L60099 32635
L60118 32672
L60118 32822
" />
<path d="M59912 32466
L59912 32222
L60062 32354
L60062 32297
L60080 32260
L60099 32241
L60137 32222
L60230 32222
L60268 32241
L60287 32260
L60305 32297
L60305 32410
L60287 32447
L60268 32466
" />
</g>
<g style="fill:#000000; fill-opacity:0.0; 
stroke:#000000; stroke-width:118.11; stroke-opacity:1; 
stroke-linecap:round; stroke-linejoin:round;">
<g transform="rotate(-90 61828.6 32552.6)">
<text x="61828.6" y="32946.3"
textLength="3119.01" font-size="1049.87" lengthAdjust="spacingAndGlyphs"
text-anchor="middle" opacity="0">100K</text>
</g>
<path d="M62184 33471
L62184 33921
" />
<path d="M62184 33696
L61397 33696
L61509 33771
L61584 33846
L61622 33921
" />
<path d="M61397 32983
L61397 32908
L61434 32833
L61472 32796
L61547 32758
L61697 32721
L61884 32721
L62034 32758
L62109 32796
L62147 32833
L62184 32908
L62184 32983
L62147 33058
L62109 33096
L62034 33133
L61884 33171
L61697 33171
L61547 33133
L61472 33096
L61434 33058
L61397 32983
" />
<path d="M61397 32233
L61397 32158
L61434 32083
L61472 32046
L61547 32008
L61697 31971
L61884 31971
L62034 32008
L62109 32046
L62147 32083
L62184 32158
L62184 32233
L62147 32308
L62109 32346
L62034 32383
L61884 32421
L61697 32421
L61547 32383
L61472 32346
L61434 32308
L61397 32233
" />
<path d="M62184 31633
L61397 31633
" />
<path d="M62184 31184
L61734 31521
" />
<path d="M61397 31184
L61847 31633
" />
</g>
<g style="fill:#000000; fill-opacity:0.0; 
stroke:#000000; stroke-width:62.9921; stroke-opacity:1; 
stroke-linecap:round; stroke-linejoin:round;">
<g transform="rotate(-90 63127.9 32552.6)">
<text x="63127.9" y="32749.4"
textLength="922.197" font-size="524.934" lengthAdjust="spacingAndGlyphs"
text-anchor="middle" opacity="0">R4</text>
</g>
<path d="M63305 32618
L63118 32749
" />
<path d="M63305 32843
L62912 32843
L62912 32693
L62931 32655
L62949 32636
L62987 32618
L63043 32618
L63080 32636
L63099 32655
L63118 32693
L63118 32843
" />
<path d="M63043 32280
L63305 32280
" />
<path d="M62893 32374
L63174 32468
L63174 32224
" />
</g>
<g style="fill:#000000; fill-opacity:0.0; 
stroke:#000000; stroke-width:118.11; stroke-opacity:1; 
stroke-linecap:round; stroke-linejoin:round;">
<text x="53720" y="33617.2"
textLength="2369.1" font-size="1049.87" lengthAdjust="spacingAndGlyphs"
text-anchor="middle" opacity="0">10K</text>
<path d="M53176 33579
L52726 33579
" />
<path d="M52951 33579
L52951 32792
L52876 32904
L52801 32979
L52726 33017
" />
<path d="M53663 32792
L53738 32792
L53813 32829
L53851 32867
L53888 32942
L53926 33092
L53926 33279
L53888 33429
L53851 33504
L53813 33542
L53738 33579
L53663 33579
L53588 33542
L53551 33504
L53513 33429
L53476 33279
L53476 33092
L53513 32942
L53551 32867
L53588 32829
L53663 32792
" />
<path d="M54263 33579
L54263 32792
" />
<path d="M54713 33579
L54376 33129
" />
<path d="M54713 32792
L54263 33242
" />
</g>
<g style="fill:#000000; fill-opacity:0.0; 
stroke:#000000; stroke-width:62.9921; stroke-opacity:1; 
stroke-linecap:round; stroke-linejoin:round;">
<text x="53720" y="32121.1"
textLength="922.197" font-size="524.934" lengthAdjust="spacingAndGlyphs"
text-anchor="middle" opacity="0">R5</text>
<path d="M53654 32102
L53523 31914
" />
<path d="M53429 32102
L53429 31708
L53579 31708
L53616 31727
L53635 31746
L53654 31783
L53654 31839
L53635 31877
L53616 31896
L53579 31914
L53429 31914
" />
<path d="M54010 31708
L53823 31708
L53804 31896
L53823 31877
L53860 31858
L53954 31858
L53991 31877
L54010 31896
L54029 31933
L54029 32027
L54010 32064
L53991 32083
L53954 32102
L53860 32102
L53823 32083
L53804 32064
" />
</g>
<g style="fill:#000000; fill-opacity:0.0; 
stroke:#000000; stroke-width:118.11; stroke-opacity:1; 
stroke-linecap:round; stroke-linejoin:round;">
<text x="53720" y="33418.7"
textLength="1731.68" font-size="1049.87" lengthAdjust="spacingAndGlyphs"
text-anchor="middle" opacity="0">1M</text>
<path d="M53495 33381
L53045 33381
" />
<path d="M53270 33381
L53270 32593
L53195 32706
L53120 32781
L53045 32818
" />
<path d="M53832 33381
L53832 32593
L54094 33156
L54357 32593
L54357 33381
" />
</g>
<g style="fill:#000000; fill-opacity:0.0; 
stroke:#000000; stroke-width:62.9921; stroke-opacity:1; 
stroke-linecap:round; stroke-linejoin:round;">
<text x="53720" y="34521.1"
textLength="922.197" font-size="524.934" lengthAdjust="spacingAndGlyphs"
text-anchor="middle" opacity="0">R6</text>
<path d="M53654 34502
L53523 34314
" />
<path d="M53429 34502
L53429 34108
L53579 34108
L53616 34127
L53635 34146
L53654 34183
L53654 34239
L53635 34277
L53616 34296
L53579 34314
L53429 34314
" />
<path d="M53991 34108
L53916 34108
L53879 34127
L53860 34146
L53823 34202
L53804 34277
L53804 34427
L53823 34464
L53841 34483
L53879 34502
L53954 34502
L53991 34483
L54010 34464
L54029 34427
L54029 34333
L54010 34296
L53991 34277
L53954 34258
L53879 34258
L53841 34277
L53823 34296
L53804 34333
" />
</g>
<g style="fill:#000000; fill-opacity:0.0; 
stroke:#000000; stroke-width:118.11; stroke-opacity:1; 
stroke-linecap:round; stroke-linejoin:round;">
<g transform="rotate(-90 65154.6 50540)">
<text x="65154.6" y="50933.7"
textLength="9868.17" font-size="1049.87" lengthAdjust="spacingAndGlyphs"
text-anchor="middle" opacity="0">SW_Reed_Opener</text>
</g>
<path d="M65473 55283
L65510 55170
L65510 54983
L65473 54908
L65435 54870
L65360 54833
L65285 54833
L65210 54870
L65173 54908
L65135 54983
L65098 55133
L65060 55208
L65023 55245
L64948 55283
L64873 55283
L64798 55245
L64760 55208
L64723 55133
L64723 54945
L64760 54833
" />
<path d="M64723 54570
L65510 54383
L64948 54233
L65510 54083
L64723 53895
" />
<path d="M65585 53783
L65585 53183
" />
<path d="M65510 52545
L65135 52808
" />
<path d="M65510 52995
L64723 52995
L64723 52695
L64760 52620
L64798 52583
L64873 52545
L64985 52545
L65060 52583
L65098 52620
L65135 52695
L65135 52995
" />
<path d="M65473 51908
L65510 51983
L65510 52133
L65473 52208
L65398 52246
L65098 52246
L65023 52208
L64985 52133
L64985 51983
L65023 51908
L65098 51871
L65173 51871
L65248 52246
" />
<path d="M65473 51233
L65510 51308
L65510 51458
L65473 51533
L65398 51571
L65098 51571
L65023 51533
L64985 51458
L64985 51308
L65023 51233
L65098 51196
L65173 51196
L65248 51571
" />
<path d="M65510 50521
L64723 50521
" />
<path d="M65473 50521
L65510 50596
L65510 50746
L65473 50821
L65435 50858
L65360 50896
L65135 50896
L65060 50858
L65023 50821
L64985 50746
L64985 50596
L65023 50521
" />
<path d="M65585 50333
L65585 49733
" />
<path d="M64723 49396
L64723 49246
L64760 49171
L64835 49096
L64985 49058
L65248 49058
L65398 49096
L65473 49171
L65510 49246
L65510 49396
L65473 49471
L65398 49546
L65248 49583
L64985 49583
L64835 49546
L64760 49471
L64723 49396
" />
<path d="M64985 48721
L65773 48721
" />
<path d="M65023 48721
L64985 48646
L64985 48496
L65023 48421
L65060 48384
L65135 48346
L65360 48346
L65435 48384
L65473 48421
L65510 48496
L65510 48646
L65473 48721
" />
<path d="M65473 47709
L65510 47784
L65510 47934
L65473 48009
L65398 48046
L65098 48046
L65023 48009
L64985 47934
L64985 47784
L65023 47709
L65098 47671
L65173 47671
L65248 48046
" />
<path d="M64985 47334
L65510 47334
" />
<path d="M65060 47334
L65023 47296
L64985 47221
L64985 47109
L65023 47034
L65098 46996
L65510 46996
" />
<path d="M65473 46321
L65510 46396
L65510 46546
L65473 46621
L65398 46659
L65098 46659
L65023 46621
L64985 46546
L64985 46396
L65023 46321
L65098 46284
L65173 46284
L65248 46659
" />
<path d="M65510 45946
L64985 45946
" />
<path d="M65135 45946
L65060 45909
L65023 45871
L64985 45796
L64985 45721
" />
<g transform="rotate(-90 63658.6 50540)">
<text x="63658.6" y="50933.7"
textLength="2553.24" font-size="1049.87" lengthAdjust="spacingAndGlyphs"
text-anchor="middle" opacity="0">SW1</text>
</g>
<path d="M63977 51589
L64014 51477
L64014 51289
L63977 51214
L63939 51177
L63864 51139
L63789 51139
L63714 51177
L63677 51214
L63639 51289
L63602 51439
L63564 51514
L63527 51552
L63452 51589
L63377 51589
L63302 51552
L63264 51514
L63227 51439
L63227 51252
L63264 51139
" />
<path d="M63227 50877
L64014 50689
L63452 50540
L64014 50390
L63227 50202
" />
<path d="M64014 49490
L64014 49940
" />
<path d="M64014 49715
L63227 49715
L63339 49790
L63414 49865
L63452 49940
" />
<text x="54209.8" y="47277"
textLength="14551.7" font-size="1049.87" lengthAdjust="spacingAndGlyphs"
text-anchor="middle" opacity="0">MCP1703A-3302_SOT23</text>
<path d="M47198 47239
L47198 46452
L47460 47014
L47723 46452
L47723 47239
" />
<path d="M48547 47164
L48510 47202
L48397 47239
L48322 47239
L48210 47202
L48135 47127
L48098 47052
L48060 46902
L48060 46789
L48098 46639
L48135 46564
L48210 46489
L48322 46452
L48397 46452
L48510 46489
L48547 46527
" />
<path d="M48885 47239
L48885 46452
L49185 46452
L49260 46489
L49297 46527
L49335 46602
L49335 46714
L49297 46789
L49260 46827
L49185 46864
L48885 46864
" />
<path d="M50085 47239
L49635 47239
" />
<path d="M49860 47239
L49860 46452
L49785 46564
L49710 46639
L49635 46677
" />
<path d="M50347 46452
L50872 46452
L50535 47239
" />
<path d="M51322 46452
L51397 46452
L51472 46489
L51510 46527
L51547 46602
L51585 46752
L51585 46939
L51547 47089
L51510 47164
L51472 47202
L51397 47239
L51322 47239
L51247 47202
L51210 47164
L51172 47089
L51135 46939
L51135 46752
L51172 46602
L51210 46527
L51247 46489
L51322 46452
" />
<path d="M51847 46452
L52334 46452
L52072 46752
L52185 46752
L52259 46789
L52297 46827
L52334 46902
L52334 47089
L52297 47164
L52259 47202
L52185 47239
L51960 47239
L51885 47202
L51847 47164
" />
<path d="M52634 47014
L53009 47014
" />
<path d="M52559 47239
L52822 46452
L53084 47239
" />
<path d="M53347 46939
L53947 46939
" />
<path d="M54247 46452
L54734 46452
L54472 46752
L54584 46752
L54659 46789
L54697 46827
L54734 46902
L54734 47089
L54697 47164
L54659 47202
L54584 47239
L54359 47239
L54284 47202
L54247 47164
" />
<path d="M54997 46452
L55484 46452
L55222 46752
L55334 46752
L55409 46789
L55447 46827
L55484 46902
L55484 47089
L55447 47164
L55409 47202
L55334 47239
L55109 47239
L55034 47202
L54997 47164
" />
<path d="M55972 46452
L56047 46452
L56122 46489
L56159 46527
L56197 46602
L56234 46752
L56234 46939
L56197 47089
L56159 47164
L56122 47202
L56047 47239
L55972 47239
L55897 47202
L55859 47164
L55822 47089
L55784 46939
L55784 46752
L55822 46602
L55859 46527
L55897 46489
L55972 46452
" />
<path d="M56534 46527
L56571 46489
L56646 46452
L56834 46452
L56909 46489
L56946 46527
L56984 46602
L56984 46677
L56946 46789
L56496 47239
L56984 47239
" />
<path d="M57134 47314
L57734 47314
" />
<path d="M57884 47202
L57996 47239
L58184 47239
L58259 47202
L58296 47164
L58334 47089
L58334 47014
L58296 46939
L58259 46902
L58184 46864
L58034 46827
L57959 46789
L57921 46752
L57884 46677
L57884 46602
L57921 46527
L57959 46489
L58034 46452
L58221 46452
L58334 46489
" />
<path d="M58821 46452
L58971 46452
L59046 46489
L59121 46564
L59159 46714
L59159 46977
L59121 47127
L59046 47202
L58971 47239
L58821 47239
L58746 47202
L58671 47127
L58634 46977
L58634 46714
L58671 46564
L58746 46489
L58821 46452
" />
<path d="M59384 46452
L59834 46452
" />
<path d="M59609 47239
L59609 46452
" />
<path d="M60059 46527
L60096 46489
L60171 46452
L60358 46452
L60433 46489
L60471 46527
L60508 46602
L60508 46677
L60471 46789
L60021 47239
L60508 47239
" />
<path d="M60771 46452
L61258 46452
L60996 46752
L61108 46752
L61183 46789
L61221 46827
L61258 46902
L61258 47089
L61221 47164
L61183 47202
L61108 47239
L60883 47239
L60808 47202
L60771 47164
" />
</g>
<g style="fill:#000000; fill-opacity:0.0; 
stroke:#000000; stroke-width:59.0551; stroke-opacity:1; 
stroke-linecap:round; stroke-linejoin:round;">
<g transform="rotate(-90 54209.8 44914.8)">
<text x="54209.8" y="45111.7"
textLength="940.945" font-size="524.934" lengthAdjust="spacingAndGlyphs"
text-anchor="middle" opacity="0">U1</text>
</g>
<path d="M53994 45214
L54312 45214
L54350 45196
L54369 45177
L54387 45139
L54387 45064
L54369 45027
L54350 45008
L54312 44989
L53994 44989
" />
<path d="M54387 44596
L54387 44821
" />
<path d="M54387 44708
L53994 44708
L54050 44746
L54087 44783
L54106 44821
" />
<g >
</g>
</g> 
</svg>
