<?xml version="1.0" standalone="no"?>
 <!DOCTYPE svg PUBLIC "-//W3C//DTD SVG 1.1//EN" 
 "http://www.w3.org/Graphics/SVG/1.1/DTD/svg11.dtd"> 
<svg xmlns="http://www.w3.org/2000/svg" version="1.1" 
    width="29.7002cm" height="21.0007cm" viewBox="0 0 116930 82680 ">
<title>SVG Picture created as PostBox-F_SilkS.svg date 2019/05/18 14:12:20 </title>
  <desc>Picture generated by PCBNEW </desc>
<g style="fill:#000000; fill-opacity:1;stroke:#000000; stroke-opacity:1;
stroke-linecap:round; stroke-linejoin:round; "
 transform="translate(0 0) scale(1 1)">
</g>
<g style="fill:#000000; fill-opacity:0.0; 
stroke:#000000; stroke-width:-0.000787402; stroke-opacity:1; 
stroke-linecap:round; stroke-linejoin:round;">
</g>
<g style="fill:#000000; fill-opacity:0.0; 
stroke:#000000; stroke-width:157.48; stroke-opacity:1; 
stroke-linecap:round; stroke-linejoin:round;">
<path d="M50992 42617
L50992 41672
L51217 41672
L51352 41717
L51442 41807
L51487 41897
L51532 42077
L51532 42212
L51487 42392
L51442 42482
L51352 42572
L51217 42617
L50992 42617
" />
<path d="M51847 41672
L52432 41672
L52117 42032
L52252 42032
L52342 42077
L52387 42122
L52432 42212
L52432 42437
L52387 42527
L52342 42572
L52252 42617
L51982 42617
L51892 42572
L51847 42527
" />
</g>
<g style="fill:#000000; fill-opacity:0.0; 
stroke:#000000; stroke-width:118.11; stroke-opacity:1; 
stroke-linecap:round; stroke-linejoin:round;">
<circle cx="47320" cy="27316.4" r="1312.34" /> 
<path d="M45351 27316
L49288 27316
" />
<path d="M47319 25347
L47319 29284
" />
<circle cx="47320" cy="27316.4" r="1312.34" /> 
<path d="M45351 27316
L49288 27316
" />
<path d="M47319 25347
L47319 29284
" />
</g>
<g style="fill:#000000; fill-opacity:0.0; 
stroke:#000000; stroke-width:236.22; stroke-opacity:1; 
stroke-linecap:round; stroke-linejoin:round;">
<path d="M51837 51168
L52737 51168
" />
<path d="M51837 49466
L52737 49466
" />
<path d="M52287 49916
L52287 49016
" />
<path d="M50772 28909
L51053 30090
L51278 29246
L51503 30090
L51784 28909
" />
<path d="M52684 30034
L52572 30090
L52347 30090
L52234 30034
L52178 29921
L52178 29471
L52234 29359
L52347 29303
L52572 29303
L52684 29359
L52741 29471
L52741 29584
L52178 29696
" />
<path d="M53247 30090
L53247 28909
L53640 29752
L54034 28909
L54034 30090
" />
<path d="M54822 28909
L55046 28909
L55159 28965
L55271 29078
L55328 29303
L55328 29696
L55271 29921
L55159 30034
L55046 30090
L54822 30090
L54709 30034
L54597 29921
L54540 29696
L54540 29303
L54597 29078
L54709 28965
L54822 28909
" />
<path d="M55778 30034
L55946 30090
L56228 30090
L56340 30034
L56396 29977
L56453 29865
L56453 29752
L56396 29640
L56340 29584
L56228 29528
L56003 29471
L55890 29415
L55834 29359
L55778 29246
L55778 29134
L55834 29021
L55890 28965
L56003 28909
L56284 28909
L56453 28965
" />
<path d="M56678 30202
L57577 30202
" />
<path d="M57859 30090
L57859 28909
L58140 28909
L58309 28965
L58421 29078
L58477 29190
L58534 29415
L58534 29584
L58477 29809
L58421 29921
L58309 30034
L58140 30090
L57859 30090
" />
<path d="M59658 30090
L58983 30090
" />
<path d="M59321 30090
L59321 28909
L59208 29078
L59096 29190
L58983 29246
" />
<path d="M61739 30090
L61346 29528
" />
<path d="M61064 30090
L61064 28909
L61514 28909
L61627 28965
L61683 29021
L61739 29134
L61739 29303
L61683 29415
L61627 29471
L61514 29528
L61064 29528
" />
<path d="M62696 30034
L62583 30090
L62358 30090
L62246 30034
L62189 29921
L62189 29471
L62246 29359
L62358 29303
L62583 29303
L62696 29359
L62752 29471
L62752 29584
L62189 29696
" />
<path d="M63258 30090
L63258 29303
" />
<path d="M63258 29415
L63314 29359
L63427 29303
L63595 29303
L63708 29359
L63764 29471
L63764 30090
" />
<path d="M63764 29471
L63820 29359
L63933 29303
L64102 29303
L64214 29359
L64270 29471
L64270 30090
" />
<path d="M65001 30090
L64889 30034
L64833 29977
L64777 29865
L64777 29528
L64833 29415
L64889 29359
L65001 29303
L65170 29303
L65283 29359
L65339 29415
L65395 29528
L65395 29865
L65339 29977
L65283 30034
L65170 30090
L65001 30090
" />
<path d="M65733 29303
L66183 29303
" />
<path d="M65901 28909
L65901 29921
L65958 30034
L66070 30090
L66183 30090
" />
<path d="M67026 30034
L66914 30090
L66689 30090
L66576 30034
L66520 29921
L66520 29471
L66576 29359
L66689 29303
L66914 29303
L67026 29359
L67082 29471
L67082 29584
L66520 29696
" />
</g>
<g style="fill:#000000; fill-opacity:0.0; 
stroke:#000000; stroke-width:157.48; stroke-opacity:1; 
stroke-linecap:round; stroke-linejoin:round;">
<path d="M65007 34567
L64692 34117
" />
<path d="M64467 34567
L64467 33622
L64827 33622
L64917 33667
L64962 33712
L65007 33802
L65007 33937
L64962 34027
L64917 34072
L64827 34117
L64467 34117
" />
<path d="M65367 34522
L65457 34567
L65637 34567
L65727 34522
L65772 34432
L65772 34387
L65727 34297
L65637 34252
L65502 34252
L65412 34207
L65367 34117
L65367 34072
L65412 33982
L65502 33937
L65637 33937
L65727 33982
" />
<path d="M66042 33937
L66402 33937
" />
<path d="M66177 33622
L66177 34432
L66222 34522
L66312 34567
L66402 34567
" />
<path d="M65030 36332
L65480 36332
" />
<path d="M64940 36602
L65255 35657
L65570 36602
" />
<path d="M66065 35657
L66155 35657
L66245 35702
L66290 35747
L66335 35837
L66380 36017
L66380 36242
L66335 36422
L66290 36512
L66245 36557
L66155 36602
L66065 36602
L65975 36557
L65930 36512
L65885 36422
L65840 36242
L65840 36017
L65885 35837
L65930 35747
L65975 35702
L66065 35657
" />
<path d="M65008 38649
L65008 37704
L65233 37704
L65368 37749
L65458 37839
L65503 37929
L65548 38109
L65548 38244
L65503 38424
L65458 38514
L65368 38604
L65233 38649
L65008 38649
" />
<path d="M66133 37704
L66223 37704
L66313 37749
L66358 37794
L66403 37884
L66448 38064
L66448 38289
L66403 38469
L66358 38559
L66313 38604
L66223 38649
L66133 38649
L66043 38604
L65998 38559
L65953 38469
L65908 38289
L65908 38064
L65953 37884
L65998 37794
L66043 37749
L66133 37704
" />
<path d="M65008 40696
L65008 39751
L65233 39751
L65368 39796
L65458 39886
L65503 39976
L65548 40156
L65548 40291
L65503 40471
L65458 40561
L65368 40651
L65233 40696
L65008 40696
" />
<path d="M66403 39751
L65953 39751
L65908 40201
L65953 40156
L66043 40111
L66268 40111
L66358 40156
L66403 40201
L66448 40291
L66448 40516
L66403 40606
L66358 40651
L66268 40696
L66043 40696
L65953 40651
L65908 40606
" />
<path d="M65008 42665
L65008 41720
L65233 41720
L65368 41765
L65458 41855
L65503 41945
L65548 42125
L65548 42260
L65503 42440
L65458 42530
L65368 42620
L65233 42665
L65008 42665
" />
<path d="M66358 41720
L66178 41720
L66088 41765
L66043 41810
L65953 41945
L65908 42125
L65908 42485
L65953 42575
L65998 42620
L66088 42665
L66268 42665
L66358 42620
L66403 42575
L66448 42485
L66448 42260
L66403 42170
L66358 42125
L66268 42080
L66088 42080
L65998 42125
L65953 42170
L65908 42260
" />
<path d="M65008 44554
L65008 43609
L65233 43609
L65368 43654
L65458 43744
L65503 43834
L65548 44014
L65548 44149
L65503 44329
L65458 44419
L65368 44509
L65233 44554
L65008 44554
" />
<path d="M65863 43609
L66493 43609
L66088 44554
" />
<path d="M65008 46602
L65008 45657
L65233 45657
L65368 45702
L65458 45792
L65503 45882
L65548 46062
L65548 46197
L65503 46377
L65458 46467
L65368 46557
L65233 46602
L65008 46602
" />
<path d="M66088 46062
L65998 46017
L65953 45972
L65908 45882
L65908 45837
L65953 45747
L65998 45702
L66088 45657
L66268 45657
L66358 45702
L66403 45747
L66448 45837
L66448 45882
L66403 45972
L66358 46017
L66268 46062
L66088 46062
L65998 46107
L65953 46152
L65908 46242
L65908 46422
L65953 46512
L65998 46557
L66088 46602
L66268 46602
L66358 46557
L66403 46512
L66448 46422
L66448 46242
L66403 46152
L66358 46107
L66268 46062
" />
<path d="M64424 47692
L65008 47692
L64693 48052
L64828 48052
L64918 48097
L64963 48142
L65008 48232
L65008 48457
L64963 48547
L64918 48592
L64828 48637
L64558 48637
L64469 48592
L64424 48547
" />
<path d="M65278 47692
L65593 48637
L65908 47692
" />
<path d="M66133 47692
L66718 47692
L66403 48052
L66538 48052
L66628 48097
L66673 48142
L66718 48232
L66718 48457
L66673 48547
L66628 48592
L66538 48637
L66268 48637
L66178 48592
L66133 48547
" />
<path d="M50812 33688
L51352 33688
" />
<path d="M51082 34633
L51082 33688
" />
<path d="M51577 33688
L52207 34633
" />
<path d="M52207 33688
L51577 34633
" />
<path d="M51532 36680
L51217 36230
" />
<path d="M50992 36680
L50992 35735
L51352 35735
L51442 35780
L51487 35825
L51532 35915
L51532 36050
L51487 36140
L51442 36185
L51352 36230
L50992 36230
" />
<path d="M51847 35735
L52477 36680
" />
<path d="M52477 35735
L51847 36680
" />
<path d="M50992 38570
L50992 37625
L51217 37625
L51352 37670
L51442 37760
L51487 37850
L51532 38030
L51532 38165
L51487 38345
L51442 38435
L51352 38525
L51217 38570
L50992 38570
" />
<path d="M52432 38570
L51892 38570
" />
<path d="M52162 38570
L52162 37625
L52072 37760
L51982 37850
L51892 37895
" />
<path d="M50992 40617
L50992 39672
L51217 39672
L51352 39717
L51442 39807
L51487 39897
L51532 40077
L51532 40212
L51487 40392
L51442 40482
L51352 40572
L51217 40617
L50992 40617
" />
<path d="M51892 39762
L51937 39717
L52027 39672
L52252 39672
L52342 39717
L52387 39762
L52432 39852
L52432 39942
L52387 40077
L51847 40617
L52432 40617
" />
<path d="M50992 44712
L50992 43767
L51217 43767
L51352 43812
L51442 43902
L51487 43992
L51532 44172
L51532 44307
L51487 44487
L51442 44577
L51352 44667
L51217 44712
L50992 44712
" />
<path d="M52342 44082
L52342 44712
" />
<path d="M52117 43722
L51892 44397
L52477 44397
" />
<path d="M51465 45780
L51375 45735
L51240 45735
L51105 45780
L51015 45870
L50970 45960
L50925 46140
L50925 46275
L50970 46455
L51015 46545
L51105 46635
L51240 46680
L51330 46680
L51465 46635
L51510 46590
L51510 46275
L51330 46275
" />
<path d="M51427 47704
L50977 47704
L50932 48154
L50977 48109
L51067 48064
L51292 48064
L51382 48109
L51427 48154
L51472 48244
L51472 48469
L51427 48559
L51382 48604
L51292 48649
L51067 48649
L50977 48604
L50932 48559
" />
<path d="M51742 47704
L52057 48649
L52372 47704
" />
</g>
<g style="fill:#000000; fill-opacity:0.0; 
stroke:#000000; stroke-width:78.7402; stroke-opacity:1; 
stroke-linecap:round; stroke-linejoin:round;">
<path d="M67251 49807
L67280 55151
" />
<path d="M68781 49051
L67251 49807
" />
<path d="M68761 31291
L68781 49051
" />
<path d="M68670 30588
L68761 31291
" />
<path d="M68490 29993
L68670 30588
" />
<path d="M68233 29496
L68490 29993
" />
<path d="M67907 29084
L68233 29496
" />
<path d="M67525 28746
L67907 29084
" />
<path d="M67097 28471
L67525 28746
" />
<path d="M66634 28247
L67097 28471
" />
<path d="M66147 28063
L66634 28247
" />
<path d="M51156 28085
L66147 28063
" />
<path d="M50685 28231
L51156 28085
" />
<path d="M50257 28426
L50685 28231
" />
<path d="M49870 28668
L50257 28426
" />
<path d="M49525 28958
L49870 28668
" />
<path d="M49221 29294
L49525 28958
" />
<path d="M48957 29677
L49221 29294
" />
<path d="M48734 30106
L48957 29677
" />
<path d="M48551 30581
L48734 30106
" />
<path d="M48540 55124
L48551 30581
" />
<path d="M55690 55145
L48540 55124
" />
<path d="M55688 54198
L55690 55145
" />
<path d="M62642 54193
L55688 54198
" />
<path d="M62634 55151
L62642 54193
" />
<path d="M67280 55151
L62634 55151
" />
</g>
<g style="fill:#000000; fill-opacity:0.0; 
stroke:#000000; stroke-width:94.4882; stroke-opacity:1; 
stroke-linecap:round; stroke-linejoin:round;">
<path d="M62957 40914
L62957 39969
" />
<path d="M62957 37355
L62957 38300
" />
<path d="M60236 37355
L62957 37355
" />
<path d="M60236 40914
L62957 40914
" />
<path d="M59398 40076
L59398 39969
" />
<path d="M59398 38193
L59398 38300
" />
<path d="M59398 38193
L60236 37355
" />
<path d="M59398 40076
L60236 40914
" />
<path d="M58816 37906
L59209 37906
" />
<path d="M59012 37710
L59012 38103
" />
<path d="M62313 42670
L62720 42670
" />
<path d="M62313 43788
L62720 43788
" />
<path d="M57875 43911
L57875 41797
" />
<path d="M57875 41797
L56364 41797
" />
<path d="M56364 41797
L56364 43911
" />
<path d="M57916 45365
L58323 45365
" />
<path d="M57916 46483
L58323 46483
" />
<path d="M52910 53768
L53894 53768
" />
<path d="M52910 52784
L52910 53768
" />
<path d="M57241 48138
L57241 50540
" />
<path d="M54918 48138
L57241 48138
" />
<path d="M54918 47547
L54918 48138
" />
<path d="M57241 52941
L57241 50540
" />
<path d="M54918 52941
L57241 52941
" />
<path d="M54918 53532
L54918 52941
" />
<path d="M53146 47547
L53146 48965
" />
<path d="M53737 47547
L53146 47547
" />
<path d="M53737 48965
L53737 47547
" />
<path d="M53146 48965
L53737 48965
" />
<path d="M53146 52114
L53146 53532
" />
<path d="M53737 52114
L53146 52114
" />
<path d="M53737 53532
L53737 52114
" />
<path d="M53146 53532
L53737 53532
" />
<path d="M53146 50146
L53146 50933
" />
<path d="M53737 50146
L53146 50146
" />
<path d="M53737 50933
L53737 50146
" />
<path d="M53146 50933
L53737 50933
" />
<path d="M53138 47540
L53138 53540
" />
<path d="M57839 47540
L53138 47540
" />
<path d="M57839 53540
L57839 47540
" />
<path d="M53138 53540
L57839 53540
" />
<path d="M62316 45365
L62723 45365
" />
<path d="M62316 46483
L62723 46483
" />
<path d="M54718 42168
L54718 41436
" />
<path d="M54718 39680
L54718 40412
" />
<path d="M54718 39680
L53017 39680
" />
<path d="M54718 42168
L53568 42168
" />
<path d="M54718 38368
L53568 38368
" />
<path d="M54718 35880
L53017 35880
" />
<path d="M54718 35880
L54718 36612
" />
<path d="M54718 38368
L54718 37636
" />
<path d="M56560 35320
L56560 35727
" />
<path d="M57679 35320
L57679 35727
" />
<path d="M56560 32320
L56560 32727
" />
<path d="M57679 32320
L57679 32727
" />
<path d="M59568 32735
L59568 32328
" />
<path d="M60686 32735
L60686 32328
" />
<path d="M62568 32348
L62568 32756
" />
<path d="M63686 32348
L63686 32756
" />
<path d="M53516 31365
L53923 31365
" />
<path d="M53516 32483
L53923 32483
" />
<path d="M53923 34883
L53516 34883
" />
<path d="M53923 33765
L53516 33765
" />
<path d="M59595 53540
L64296 53540
" />
<path d="M64296 53540
L64296 47540
" />
<path d="M64296 47540
L59595 47540
" />
<path d="M59595 47540
L59595 53540
" />
<path d="M59603 50933
L60194 50933
" />
<path d="M60194 50933
L60194 50146
" />
<path d="M60194 50146
L59603 50146
" />
<path d="M59603 50146
L59603 50933
" />
<path d="M59603 53532
L60194 53532
" />
<path d="M60194 53532
L60194 52114
" />
<path d="M60194 52114
L59603 52114
" />
<path d="M59603 52114
L59603 53532
" />
<path d="M59603 48965
L60194 48965
" />
<path d="M60194 48965
L60194 47547
" />
<path d="M60194 47547
L59603 47547
" />
<path d="M59603 47547
L59603 48965
" />
<path d="M61375 53532
L61375 52941
" />
<path d="M61375 52941
L63697 52941
" />
<path d="M63697 52941
L63697 50540
" />
<path d="M61375 47547
L61375 48138
" />
<path d="M61375 48138
L63697 48138
" />
<path d="M63697 48138
L63697 50540
" />
<path d="M59367 52784
L59367 53768
" />
<path d="M59367 53768
L60351 53768
" />
<path d="M54808 46158
L54808 45426
" />
<path d="M54808 43670
L54808 44402
" />
<path d="M54808 43670
L53107 43670
" />
<path d="M54808 46158
L53658 46158
" />
<g >
</g>
<g >
</g>
<g >
</g>
<g >
</g>
<g >
</g>
<g >
</g>
<g >
</g>
<g >
</g>
<g >
</g>
<g >
</g>
<g >
</g>
<g >
</g>
<g >
</g>
<g >
</g>
<g >
</g>
<g >
</g>
<g >
</g>
<g >
</g>
</g>
<g style="fill:#000000; fill-opacity:0.0; 
stroke:#000000; stroke-width:118.11; stroke-opacity:1; 
stroke-linecap:round; stroke-linejoin:round;">
<path d="M61047 36896
L61009 36934
L60897 36971
L60822 36971
L60709 36934
L60634 36859
L60597 36784
L60559 36634
L60559 36521
L60597 36371
L60634 36296
L60709 36221
L60822 36184
L60897 36184
L61009 36221
L61047 36259
" />
<path d="M61796 36971
L61346 36971
" />
<path d="M61571 36971
L61571 36184
L61496 36296
L61421 36371
L61346 36409
" />
<path d="M62385 42286
L62123 41911
" />
<path d="M61935 42286
L61935 41499
L62235 41499
L62310 41536
L62348 41574
L62385 41649
L62385 41761
L62348 41836
L62310 41874
L62235 41911
L61935 41911
" />
<path d="M62835 41836
L62760 41799
L62723 41761
L62685 41686
L62685 41649
L62723 41574
L62760 41536
L62835 41499
L62985 41499
L63060 41536
L63098 41574
L63135 41649
L63135 41686
L63098 41761
L63060 41799
L62985 41836
L62835 41836
L62760 41874
L62723 41911
L62685 41986
L62685 42136
L62723 42211
L62760 42249
L62835 42286
L62985 42286
L63060 42249
L63098 42211
L63135 42136
L63135 41986
L63098 41911
L63060 41874
L62985 41836
" />
<path d="M58775 43705
L57988 43705
L57988 43517
L58025 43405
L58100 43330
L58175 43292
L58325 43255
L58437 43255
L58587 43292
L58662 43330
L58737 43405
L58775 43517
L58775 43705
" />
<path d="M58775 42505
L58775 42955
" />
<path d="M58775 42730
L57988 42730
L58100 42805
L58175 42880
L58212 42955
" />
<path d="M57646 48706
L57383 48331
" />
<path d="M57196 48706
L57196 47919
L57496 47919
L57571 47956
L57608 47994
L57646 48069
L57646 48181
L57608 48256
L57571 48293
L57496 48331
L57196 48331
" />
<path d="M57908 47919
L58433 47919
L58096 48706
" />
<path d="M53797 54174
L53797 54737
L53759 54849
L53684 54924
L53572 54962
L53497 54962
" />
<path d="M54584 54962
L54134 54962
" />
<path d="M54359 54962
L54359 54174
L54284 54287
L54209 54362
L54134 54399
" />
<path d="M67046 32512
L67046 31724
L67346 31724
L67421 31762
L67459 31799
L67496 31874
L67496 31987
L67459 32062
L67421 32099
L67346 32137
L67046 32137
" />
<path d="M67796 31799
L67834 31762
L67909 31724
L68096 31724
L68171 31762
L68209 31799
L68246 31874
L68246 31949
L68209 32062
L67759 32512
L68246 32512
" />
<path d="M49036 32476
L49036 31688
L49336 31688
L49411 31726
L49449 31763
L49486 31838
L49486 31951
L49449 32026
L49411 32063
L49336 32101
L49036 32101
" />
<path d="M50236 32476
L49786 32476
" />
<path d="M50011 32476
L50011 31688
L49936 31801
L49861 31876
L49786 31913
" />
</g>
<g style="fill:#000000; fill-opacity:0.0; 
stroke:#000000; stroke-width:78.7402; stroke-opacity:1; 
stroke-linecap:round; stroke-linejoin:round;">
<path d="M60214 46149
L60185 46179
L60095 46209
L60035 46209
L59945 46179
L59885 46119
L59855 46059
L59825 45939
L59825 45849
L59855 45729
L59885 45669
L59945 45609
L60035 45579
L60095 45579
L60185 45609
L60214 45639
" />
<path d="M60424 45579
L60814 45579
L60604 45819
L60694 45819
L60754 45849
L60784 45879
L60814 45939
L60814 46089
L60784 46149
L60754 46179
L60694 46209
L60514 46209
L60454 46179
L60424 46149
" />
<path d="M55459 42269
L55400 42239
L55340 42179
L55250 42089
L55190 42059
L55130 42059
" />
<path d="M55160 42209
L55100 42179
L55040 42119
L55010 41999
L55010 41789
L55040 41669
L55100 41609
L55160 41579
L55280 41579
L55340 41609
L55400 41669
L55429 41789
L55429 41999
L55400 42119
L55340 42179
L55280 42209
L55160 42209
" />
<path d="M56029 42209
L55669 42209
" />
<path d="M55849 42209
L55849 41579
L55789 41669
L55729 41729
L55669 41759
" />
<path d="M55459 38469
L55400 38439
L55340 38379
L55250 38289
L55190 38259
L55130 38259
" />
<path d="M55160 38409
L55100 38379
L55040 38319
L55010 38199
L55010 37989
L55040 37869
L55100 37809
L55160 37779
L55280 37779
L55340 37809
L55400 37869
L55429 37989
L55429 38199
L55400 38319
L55340 38379
L55280 38409
L55160 38409
" />
<path d="M55669 37839
L55699 37809
L55759 37779
L55909 37779
L55969 37809
L55999 37839
L56029 37899
L56029 37959
L55999 38049
L55639 38409
L56029 38409
" />
<path d="M56204 35629
L55904 35839
" />
<path d="M56204 35989
L55575 35989
L55575 35749
L55605 35689
L55635 35659
L55695 35629
L55785 35629
L55844 35659
L55874 35689
L55904 35749
L55904 35989
" />
<path d="M56204 35029
L56204 35389
" />
<path d="M56204 35209
L55575 35209
L55665 35269
L55725 35329
L55755 35389
" />
<path d="M56187 32622
L55905 32819
" />
<path d="M56187 32960
L55596 32960
L55596 32735
L55624 32678
L55652 32650
L55709 32622
L55793 32622
L55849 32650
L55877 32678
L55905 32735
L55905 32960
" />
<path d="M55652 32397
L55624 32369
L55596 32313
L55596 32172
L55624 32116
L55652 32088
L55709 32060
L55765 32060
L55849 32088
L56187 32425
L56187 32060
" />
<path d="M59095 32630
L58814 32827
" />
<path d="M59095 32968
L58505 32968
L58505 32743
L58533 32686
L58561 32658
L58617 32630
L58702 32630
L58758 32658
L58786 32686
L58814 32743
L58814 32968
" />
<path d="M58505 32433
L58505 32068
L58730 32264
L58730 32180
L58758 32124
L58786 32096
L58842 32068
L58983 32068
L59039 32096
L59067 32124
L59095 32180
L59095 32349
L59067 32405
L59039 32433
" />
<path d="M62094 32630
L61813 32827
" />
<path d="M62094 32968
L61503 32968
L61503 32743
L61531 32686
L61559 32658
L61616 32630
L61700 32630
L61756 32658
L61784 32686
L61813 32743
L61813 32968
" />
<path d="M61700 32124
L62094 32124
" />
<path d="M61475 32264
L61897 32405
L61897 32040
" />
<path d="M53621 30991
L53424 30710
" />
<path d="M53284 30991
L53284 30400
L53509 30400
L53565 30428
L53593 30457
L53621 30513
L53621 30597
L53593 30653
L53565 30682
L53509 30710
L53284 30710
" />
<path d="M54155 30400
L53874 30400
L53846 30682
L53874 30653
L53930 30625
L54071 30625
L54127 30653
L54155 30682
L54183 30738
L54183 30878
L54155 30935
L54127 30963
L54071 30991
L53930 30991
L53874 30963
L53846 30935
" />
<path d="M53621 33391
L53424 33110
" />
<path d="M53284 33391
L53284 32800
L53509 32800
L53565 32828
L53593 32857
L53621 32913
L53621 32997
L53593 33053
L53565 33082
L53509 33110
L53284 33110
" />
<path d="M54127 32800
L54015 32800
L53959 32828
L53930 32857
L53874 32941
L53846 33053
L53846 33278
L53874 33335
L53902 33363
L53959 33391
L54071 33391
L54127 33363
L54155 33335
L54183 33278
L54183 33138
L54155 33082
L54127 33053
L54071 33025
L53959 33025
L53902 33053
L53874 33082
L53846 33138
" />
</g>
<g style="fill:#000000; fill-opacity:0.0; 
stroke:#000000; stroke-width:118.11; stroke-opacity:1; 
stroke-linecap:round; stroke-linejoin:round;">
<path d="M65718 51592
L65756 51480
L65756 51293
L65718 51218
L65681 51180
L65606 51143
L65531 51143
L65456 51180
L65418 51218
L65381 51293
L65343 51442
L65306 51517
L65268 51555
L65193 51592
L65118 51592
L65043 51555
L65006 51517
L64968 51442
L64968 51255
L65006 51143
" />
<path d="M64968 50880
L65756 50693
L65193 50543
L65756 50393
L64968 50205
" />
<path d="M65756 49493
L65756 49943
" />
<path d="M65756 49718
L64968 49718
L65081 49793
L65156 49868
L65193 49943
" />
</g>
<g style="fill:#000000; fill-opacity:0.0; 
stroke:#000000; stroke-width:78.7402; stroke-opacity:1; 
stroke-linecap:round; stroke-linejoin:round;">
<path d="M55240 45579
L55240 46089
L55270 46149
L55300 46179
L55360 46209
L55480 46209
L55540 46179
L55570 46149
L55600 46089
L55600 45579
" />
<path d="M56229 46209
L55869 46209
" />
<path d="M56049 46209
L56049 45579
L55989 45669
L55929 45729
L55869 45759
" />
<g >
</g>
</g> 
</svg>
